<svg xmlns="http://www.w3.org/2000/svg" viewBox="0 0 64 64">
  <circle cx="32" cy="32" r="30" fill="#F6F8FA"/>
  <path d="M19.4 38.7c-4.5 2.2-8.1 5.8-10.5 10.7 6.6.5 12.6-1.5 16.8-5.6l-6.3-5.1Z" fill="#E85F5A"/>
  <path d="M19.2 39.8c0-8.9 7-14.7 16.8-14.7 10.5 0 17 6.1 17 14.3 0 8.2-7.4 13.6-18.3 13.6-9.4 0-15.5-5-15.5-13.2Z" fill="#FF746F"/>
  <path d="M27.8 27.8c0-7.8 5.8-13.8 13.6-13.8 7.3 0 12.5 4.7 12.5 11.5 0 7.8-6.1 13.2-14.1 13.2-7.3 0-12-4.4-12-10.9Z" fill="#FF746F"/>
  <path d="M26.6 39.2c5.1-6.1 12.8-8.3 21.7-6.4-3.1 7.6-10.2 12.6-19.5 13.8-2.9.4-4.3-3.1-2.2-7.4Z" fill="#E85F5A" opacity=".9"/>
  <path d="M52.3 25.8l4.4 1.9-4.5 2.2c.5-1.3.5-2.8.1-4.1Z" fill="#6F8796"/>
  <circle cx="43.1" cy="24.6" r="1.65" fill="#FFFFFF"/>
  <circle cx="43.6" cy="24.5" r=".78" fill="#2D3135"/>
  <path d="M40.2 22.3c1.4-.7 3.1-.6 4.5.2" fill="none" stroke="#2D3135" stroke-width="1.3" stroke-linecap="round"/>
  <path d="M28.6 20.1c1.5-3.3 4.2-5.3 7.9-5.8-.7 3.7-3.4 5.9-7.9 5.8Z" fill="#FF746F"/>
  <rect x="13.8" y="44.6" width="12" height="8.4" rx="2.2" fill="#FFFFFF" stroke="#E3E7EA" stroke-width="1.4"/>
  <path d="M16.6 47.4h6.1M16.6 50.1h4.2" stroke="#6F8796" stroke-width="1.3" stroke-linecap="round"/>
  <circle cx="48.7" cy="44.9" r="2" fill="#6F8796" opacity=".88"/>
  <path d="M53.6 15.2l.7 1.8 1.8.7-1.8.7-.7 1.8-.7-1.8-1.8-.7 1.8-.7.7-1.8Z" fill="#6F8796"/>
  <path d="M13.9 23.2l.5 1.3 1.3.5-1.3.5-.5 1.3-.5-1.3-1.3-.5 1.3-.5.5-1.3Z" fill="#F2C14E"/>
</svg>
