<svg xmlns="http://www.w3.org/2000/svg" viewBox="0 0 64 64">
  <circle cx="32" cy="32" r="30" fill="#FFF2F0"/>
  <path d="M18.2 39.6c-3.5 2.2-6.4 5.9-7.8 10.8 5.8 0 10.9-2.1 14.5-5.9l-6.7-4.9Z" fill="#FF746F"/>
  <path d="M19.7 39.6c0-8.8 6.6-14.8 15.7-14.8 10.3 0 17.2 6.8 17.2 15.1 0 7.9-7.2 13.4-17.6 13.4-9.4 0-15.3-5.3-15.3-13.7Z" fill="#FF746F"/>
  <path d="M24.9 27.1c0-8.3 6.9-14.8 15.9-14.8 8.4 0 14.2 5.5 14.2 12.8 0 8.3-6.8 14.2-15.8 14.2-8.6 0-14.3-4.9-14.3-12.2Z" fill="#FF746F"/>
  <path d="M25.1 39.9c4.7-6.4 12.5-9.1 22.3-7.7-2.6 8-9.3 13.7-18.8 15-3 .4-4.7-2.9-3.5-7.3Z" fill="#E85F5A" opacity=".87"/>
  <path d="M53.1 25.6l4.6 2.1-4.7 2.4c.6-1.5.7-3.1.1-4.5Z" fill="#6F8796"/>
  <circle cx="43.9" cy="24.3" r="1.8" fill="#FFFFFF"/>
  <circle cx="44.4" cy="24.2" r=".85" fill="#2D3135"/>
  <path d="M40.4 22.1c1.7-.9 3.8-.8 5.4.3" fill="none" stroke="#2D3135" stroke-width="1.4" stroke-linecap="round"/>
  <path d="M26.7 19.9c1.4-3.9 4.5-6.3 8.9-7-.8 4.4-3.8 7-8.9 7Z" fill="#FF746F"/>
  <path d="M26.3 43.7c4.4-.2 8.9-2.1 13.5-5.7-1.8 5.4-6.6 9.1-12 9.7-1.6.2-2.4-2.1-1.5-4Z" fill="#B84843" opacity=".25"/>
  <rect x="14.3" y="44.7" width="12.1" height="8.3" rx="2.2" fill="#FFFFFF" stroke="#E3E7EA" stroke-width="1.4"/>
  <path d="M17.1 47.4h6.2M17.1 50.1h4.1" stroke="#6F8796" stroke-width="1.3" stroke-linecap="round"/>
  <circle cx="48.2" cy="44.2" r="1.9" fill="#F2C14E"/>
  <path d="M52.9 15.4l.6 1.7 1.7.6-1.7.6-.6 1.7-.6-1.7-1.7-.6 1.7-.6.6-1.7Z" fill="#F2C14E"/>
  <path d="M14.2 24.2l.5 1.4 1.4.5-1.4.5-.5 1.4-.5-1.4-1.4-.5 1.4-.5.5-1.4Z" fill="#6F8796"/>
</svg>
